<mxfile host="Electron" modified="2023-11-08T14:57:23.836Z" agent="Mozilla/5.0 (Windows NT 10.0; Win64; x64) AppleWebKit/537.36 (KHTML, like Gecko) draw.io/21.1.2 Chrome/106.0.5249.199 Electron/21.4.3 Safari/537.36" etag="qHIcOq6PgiP3Qu0-w1iN" version="21.1.2" type="device">
  <diagram id="R2lEEEUBdFMjLlhIrx00" name="Page-1">
    <mxGraphModel dx="1418" dy="828" grid="1" gridSize="10" guides="1" tooltips="1" connect="1" arrows="1" fold="1" page="1" pageScale="1" pageWidth="850" pageHeight="1100" math="0" shadow="0" extFonts="Permanent Marker^https://fonts.googleapis.com/css?family=Permanent+Marker">
      <root>
        <mxCell id="0" />
        <mxCell id="1" parent="0" />
        <mxCell id="DDyuou-iMdk4PMovxVfH-10" style="edgeStyle=orthogonalEdgeStyle;rounded=0;orthogonalLoop=1;jettySize=auto;html=1;entryX=0.5;entryY=0;entryDx=0;entryDy=0;" edge="1" parent="1" source="DDyuou-iMdk4PMovxVfH-2" target="DDyuou-iMdk4PMovxVfH-8">
          <mxGeometry relative="1" as="geometry" />
        </mxCell>
        <mxCell id="DDyuou-iMdk4PMovxVfH-11" style="edgeStyle=orthogonalEdgeStyle;rounded=0;orthogonalLoop=1;jettySize=auto;html=1;exitX=1;exitY=0.5;exitDx=0;exitDy=0;exitPerimeter=0;entryX=0.5;entryY=0;entryDx=0;entryDy=0;" edge="1" parent="1" source="DDyuou-iMdk4PMovxVfH-2" target="DDyuou-iMdk4PMovxVfH-9">
          <mxGeometry relative="1" as="geometry" />
        </mxCell>
        <mxCell id="DDyuou-iMdk4PMovxVfH-17" style="edgeStyle=orthogonalEdgeStyle;rounded=0;orthogonalLoop=1;jettySize=auto;html=1;entryX=0.5;entryY=0;entryDx=0;entryDy=0;" edge="1" parent="1" source="DDyuou-iMdk4PMovxVfH-2" target="DDyuou-iMdk4PMovxVfH-16">
          <mxGeometry relative="1" as="geometry" />
        </mxCell>
        <mxCell id="DDyuou-iMdk4PMovxVfH-2" value="&lt;font style=&quot;font-size: 20px;&quot;&gt;1.普通测试&lt;br&gt;2.大用户量测试&lt;br&gt;其他，退出测试&lt;br&gt;&lt;/font&gt;" style="strokeWidth=2;html=1;shape=mxgraph.flowchart.decision;whiteSpace=wrap;" vertex="1" parent="1">
          <mxGeometry x="310" y="400" width="230" height="170" as="geometry" />
        </mxCell>
        <mxCell id="DDyuou-iMdk4PMovxVfH-6" style="edgeStyle=orthogonalEdgeStyle;rounded=0;orthogonalLoop=1;jettySize=auto;html=1;exitX=0.5;exitY=1;exitDx=0;exitDy=0;entryX=0.5;entryY=0;entryDx=0;entryDy=0;entryPerimeter=0;" edge="1" parent="1" source="DDyuou-iMdk4PMovxVfH-5" target="DDyuou-iMdk4PMovxVfH-2">
          <mxGeometry relative="1" as="geometry" />
        </mxCell>
        <mxCell id="DDyuou-iMdk4PMovxVfH-5" value="&lt;font style=&quot;font-size: 20px;&quot;&gt;初始化（服务器启动，用户登录等）&lt;/font&gt;" style="rounded=1;whiteSpace=wrap;html=1;" vertex="1" parent="1">
          <mxGeometry x="320" y="250" width="210" height="100" as="geometry" />
        </mxCell>
        <mxCell id="DDyuou-iMdk4PMovxVfH-13" style="edgeStyle=orthogonalEdgeStyle;rounded=0;orthogonalLoop=1;jettySize=auto;html=1;entryX=0.5;entryY=0;entryDx=0;entryDy=0;" edge="1" parent="1" source="DDyuou-iMdk4PMovxVfH-8" target="DDyuou-iMdk4PMovxVfH-12">
          <mxGeometry relative="1" as="geometry" />
        </mxCell>
        <mxCell id="DDyuou-iMdk4PMovxVfH-8" value="&lt;font style=&quot;font-size: 20px;&quot;&gt;进入‘1’&lt;/font&gt;" style="rounded=0;whiteSpace=wrap;html=1;" vertex="1" parent="1">
          <mxGeometry x="160" y="580" width="120" height="60" as="geometry" />
        </mxCell>
        <mxCell id="DDyuou-iMdk4PMovxVfH-15" style="edgeStyle=orthogonalEdgeStyle;rounded=0;orthogonalLoop=1;jettySize=auto;html=1;entryX=0.5;entryY=0;entryDx=0;entryDy=0;" edge="1" parent="1" source="DDyuou-iMdk4PMovxVfH-9" target="DDyuou-iMdk4PMovxVfH-14">
          <mxGeometry relative="1" as="geometry" />
        </mxCell>
        <mxCell id="DDyuou-iMdk4PMovxVfH-9" value="&lt;font style=&quot;font-size: 20px;&quot;&gt;进入‘2’&lt;/font&gt;" style="rounded=0;whiteSpace=wrap;html=1;" vertex="1" parent="1">
          <mxGeometry x="570" y="580" width="120" height="60" as="geometry" />
        </mxCell>
        <mxCell id="DDyuou-iMdk4PMovxVfH-18" style="edgeStyle=orthogonalEdgeStyle;rounded=0;orthogonalLoop=1;jettySize=auto;html=1;entryX=0;entryY=0.5;entryDx=0;entryDy=0;exitX=0.5;exitY=1;exitDx=0;exitDy=0;" edge="1" parent="1" source="DDyuou-iMdk4PMovxVfH-12" target="DDyuou-iMdk4PMovxVfH-16">
          <mxGeometry relative="1" as="geometry" />
        </mxCell>
        <mxCell id="DDyuou-iMdk4PMovxVfH-12" value="&lt;font style=&quot;font-size: 20px;&quot;&gt;执行少量用户一般使用测试&lt;/font&gt;" style="rounded=0;whiteSpace=wrap;html=1;" vertex="1" parent="1">
          <mxGeometry x="170" y="690" width="100" height="220" as="geometry" />
        </mxCell>
        <mxCell id="DDyuou-iMdk4PMovxVfH-19" style="edgeStyle=orthogonalEdgeStyle;rounded=0;orthogonalLoop=1;jettySize=auto;html=1;entryX=1;entryY=0.5;entryDx=0;entryDy=0;exitX=0.5;exitY=1;exitDx=0;exitDy=0;" edge="1" parent="1" source="DDyuou-iMdk4PMovxVfH-14" target="DDyuou-iMdk4PMovxVfH-16">
          <mxGeometry relative="1" as="geometry" />
        </mxCell>
        <mxCell id="DDyuou-iMdk4PMovxVfH-14" value="&lt;font style=&quot;font-size: 20px;&quot;&gt;执行大量用户抗安全性测试&lt;/font&gt;" style="rounded=0;whiteSpace=wrap;html=1;" vertex="1" parent="1">
          <mxGeometry x="580" y="690" width="100" height="220" as="geometry" />
        </mxCell>
        <mxCell id="DDyuou-iMdk4PMovxVfH-16" value="&lt;font style=&quot;font-size: 20px;&quot;&gt;结束&lt;font style=&quot;font-size: 20px;&quot;&gt;测试&lt;/font&gt;&lt;/font&gt;" style="rounded=1;whiteSpace=wrap;html=1;" vertex="1" parent="1">
          <mxGeometry x="355" y="960" width="140" height="70" as="geometry" />
        </mxCell>
        <mxCell id="DDyuou-iMdk4PMovxVfH-21" value="总体流程图" style="rounded=0;whiteSpace=wrap;html=1;" vertex="1" parent="1">
          <mxGeometry x="560" y="290" width="120" height="60" as="geometry" />
        </mxCell>
        <mxCell id="DDyuou-iMdk4PMovxVfH-22" value="执行少量用户一般使用测试" style="rounded=1;whiteSpace=wrap;html=1;" vertex="1" parent="1">
          <mxGeometry x="1000" y="190" width="160" height="70" as="geometry" />
        </mxCell>
        <mxCell id="DDyuou-iMdk4PMovxVfH-23" value="执行大用户量抗安全性测试" style="rounded=1;whiteSpace=wrap;html=1;" vertex="1" parent="1">
          <mxGeometry x="1400" y="190" width="160" height="70" as="geometry" />
        </mxCell>
      </root>
    </mxGraphModel>
  </diagram>
</mxfile>
